<svg width="244" height="121" viewBox="0 0 244 121" fill="none" xmlns="http://www.w3.org/2000/svg">
<g clip-path="url(#clip0)">
<path opacity="0.1" d="M79.9432 31.5334L149.864 62.8279L79.9432 94.1223L10.0227 62.8279L79.9432 31.5334Z" fill="#F7F9FF"/>
<path opacity="0.1" d="M79.9432 68.3223L137.932 94.3612L79.9432 120.4L21.9546 94.3612L79.9432 68.3223Z" fill="#F7F9FF"/>
<path opacity="0.1" d="M79.9432 107.022L121.705 125.417L79.9432 143.811L38.1818 125.417L79.9432 107.022Z" fill="#F7F9FF"/>
<path opacity="0.4" d="M77.7955 114.189L84 111.8L118.364 124.7L112.159 127.089L77.7955 114.189Z" fill="white"/>
<path opacity="0.4" d="M67.2955 118.489L73.5 116.1L107.864 129L101.659 131.389L67.2955 118.489Z" fill="white"/>
<path opacity="0.4" d="M56.3182 122.311L62.5228 119.922L79.7046 126.611L73.5 128.761L56.3182 122.311Z" fill="white"/>
<path d="M21.9546 31.0557C21.9546 31.0557 56.4246 31.0557 78.5114 31.0557C100.598 31.0557 135.068 31.0557 135.068 31.0557C86.625 62.8649 85.903 90.2707 80.8407 130.433H78.6411C72.4529 90.3755 71.3523 63.0728 21.9546 31.0557Z" fill="url(#paint0_linear)"/>
<path d="M71.3944 53.1733C70.9909 53.5995 70.3368 53.5995 69.9334 53.1733C69.5299 52.7472 69.5299 52.0562 69.9334 51.6301L78.198 42.9002C78.6015 42.4741 79.2556 42.4741 79.659 42.9002L87.9236 51.6301C88.3271 52.0562 88.3271 52.7472 87.9236 53.1733C87.5202 53.5995 86.8661 53.5995 86.4626 53.1733L78.9285 45.2151L71.3944 53.1733Z" fill="white"/>
<path opacity="0.8" d="M73.9923 64.8406C73.728 65.1163 73.2995 65.1163 73.0351 64.8406C72.7708 64.5648 72.7708 64.1177 73.0351 63.842L78.4499 58.1933C78.7142 57.9175 79.1428 57.9175 79.4071 58.1933L84.8219 63.842C85.0862 64.1177 85.0862 64.5648 84.8219 64.8406C84.5575 65.1163 84.129 65.1163 83.8646 64.8406L78.9285 59.6911L73.9923 64.8406Z" fill="white"/>
<path opacity="0.6" d="M75.5511 77.1118C75.3703 77.2873 75.0771 77.2873 74.8962 77.1118C74.7153 76.9363 74.7153 76.6518 74.8962 76.4764L78.601 72.8817C78.7819 72.7062 79.0751 72.7062 79.256 72.8817L82.9608 76.4764C83.1416 76.6518 83.1416 76.9363 82.9608 77.1118C82.7799 77.2873 82.4867 77.2873 82.3059 77.1118L78.9285 73.8349L75.5511 77.1118Z" fill="white"/>
<path opacity="0.3" d="M76.0707 90.5918C75.9177 90.7673 75.6696 90.7673 75.5165 90.5918C75.3635 90.4163 75.3635 90.1318 75.5165 89.9563L78.6514 86.3617C78.8044 86.1862 79.0525 86.1862 79.2056 86.3617L82.3404 89.9563C82.4935 90.1318 82.4935 90.4163 82.3404 90.5918C82.1874 90.7673 81.9393 90.7673 81.7863 90.5918L78.9285 87.3149L76.0707 90.5918Z" fill="white"/>
<path d="M311.061 120.795C311.061 120.795 307.211 119.228 294.97 124.851C282.729 130.475 281.2 129.76 278.029 128.9C274.858 128.04 273.104 127.837 269.695 123.148C269.695 123.148 267.301 110.143 264.981 108.13C262.66 106.117 252.805 109.278 252.805 109.278C252.805 109.278 240.988 111.989 238.736 96.1802C238.736 96.1802 240.334 84.2658 238.159 80.6093C238.159 80.6093 242.537 82.5047 249.798 79.4425C257.06 76.3804 262.846 82.7293 262.846 82.7293C262.846 82.7293 264.674 87.4649 264.488 90.2888C264.302 93.1126 265.454 94.1753 268.912 92.8113C268.912 92.8113 270.609 90.3928 268.206 86.394C265.804 82.3951 264.086 79.4206 264.756 76.3174C265.427 73.2142 267.355 68.9223 273.558 66.7558C279.761 64.5893 288.179 64.1894 292.223 62.5049C296.267 60.8205 297.244 59.7222 297.244 59.7222C297.244 59.7222 294.757 62.2173 300.615 72.7951C306.473 83.3729 302.741 87.9634 302.741 87.9634C302.741 87.9634 299.622 95.3996 285.859 94.7971C285.859 94.7971 272.598 95.2818 279.826 100.91C279.826 100.91 284.458 99.9682 291.381 97.7633C298.303 95.5585 303.302 104.655 304.541 110.981C305.781 117.308 311.061 120.795 311.061 120.795Z" fill="#0454F2"/>
<path fill-rule="evenodd" clip-rule="evenodd" d="M293.435 67.5154L293.48 67.688C293.559 67.9877 293.513 68.3735 293.39 68.8101C293.264 69.2521 293.052 69.7705 292.769 70.3481C292.204 71.5038 291.35 72.9163 290.324 74.462C288.271 77.5545 285.519 81.1983 282.985 84.4205L282.875 84.56L282.532 84.2944L282.643 84.1523C286.216 79.6063 288.927 75.8717 290.692 73.0824C291.575 71.6872 292.218 70.5331 292.615 69.635C292.814 69.1858 292.948 68.8052 293.021 68.4935C293.094 68.1783 293.1 67.9509 293.06 67.7987L293.014 67.6246L293.435 67.5154Z" fill="#444053"/>
<path d="M282.545 84.3281L282.891 84.567C278.844 89.7162 273.733 95.7816 269.659 100.334C269.271 100.766 269.074 101.304 268.705 101.767L268.447 101.324C268.819 100.859 269.208 100.401 269.596 99.955C273.67 95.4139 278.499 89.4746 282.545 84.3281Z" fill="#444053"/>
<path d="M268.546 101.206L268.628 101.346C261.213 110.612 260.723 124.999 260.693 125.123L259.131 123.315C259.158 123.183 261.082 110.532 268.546 101.206Z" fill="#444053"/>
<path fill-rule="evenodd" clip-rule="evenodd" d="M251.54 91.7441C252.032 92.676 252.37 93.5523 252.438 94.2111C252.496 94.771 252.801 95.4895 253.252 96.271C253.7 97.0459 254.275 97.8574 254.846 98.5973C255.417 99.3365 255.98 100 256.4 100.48C256.61 100.719 256.785 100.912 256.907 101.045C256.967 101.112 257.015 101.163 257.047 101.198L257.084 101.237L257.093 101.247L257.096 101.25L257.125 101.281L257.142 101.319C257.448 102.025 258.069 102.728 258.852 103.391C259.632 104.051 260.556 104.657 261.445 105.173C262.334 105.688 263.182 106.111 263.809 106.404C264.122 106.551 264.379 106.665 264.558 106.743C264.647 106.781 264.717 106.811 264.764 106.831C264.788 106.84 264.806 106.848 264.818 106.853L264.831 106.858L264.835 106.86L264.745 107.081C264.849 106.866 264.849 106.866 264.849 106.866L264.849 106.866L264.851 106.867L264.86 106.871L264.892 106.887C264.921 106.901 264.964 106.921 265.021 106.948C265.135 107.002 265.302 107.08 265.518 107.179C265.95 107.378 266.575 107.66 267.346 107.993C268.889 108.66 271.016 109.533 273.355 110.354C275.694 111.175 278.24 111.943 280.62 112.405C283.007 112.867 285.202 113.016 286.852 112.62C290.316 111.789 294.255 112.533 297.307 113.47C298.836 113.94 300.152 114.461 301.085 114.865C301.552 115.067 301.923 115.239 302.178 115.362C302.306 115.423 302.404 115.471 302.471 115.505C302.505 115.522 302.53 115.535 302.548 115.543L302.567 115.554L302.572 115.556L302.574 115.557C302.574 115.557 302.574 115.557 302.464 115.769L302.355 115.981L302.353 115.981L302.349 115.978L302.331 115.969C302.315 115.961 302.29 115.948 302.258 115.932C302.193 115.9 302.097 115.852 301.972 115.792C301.722 115.672 301.356 115.502 300.896 115.303C299.974 114.905 298.676 114.391 297.167 113.927C294.14 112.998 290.301 112.284 286.963 113.085C285.212 113.505 282.936 113.34 280.53 112.874C278.117 112.406 275.548 111.63 273.197 110.804C270.845 109.979 268.707 109.102 267.157 108.432C266.382 108.097 265.754 107.813 265.319 107.613C265.102 107.513 264.933 107.434 264.818 107.38C264.76 107.353 264.717 107.332 264.687 107.318L264.653 107.302L264.648 107.3L264.636 107.295C264.623 107.289 264.604 107.282 264.58 107.271C264.531 107.251 264.459 107.22 264.368 107.181C264.186 107.102 263.924 106.986 263.606 106.837C262.971 106.539 262.11 106.111 261.206 105.587C260.303 105.063 259.353 104.441 258.544 103.756C257.751 103.084 257.075 102.338 256.721 101.548L256.698 101.524C256.665 101.488 256.616 101.435 256.555 101.368C256.431 101.233 256.254 101.037 256.042 100.795C255.617 100.311 255.047 99.6389 254.468 98.8894C253.891 98.1407 253.301 97.3106 252.839 96.51C252.381 95.7159 252.032 94.9249 251.963 94.2605C251.904 93.6949 251.602 92.8844 251.118 91.9673C250.638 91.0566 249.99 90.063 249.261 89.1368C248.531 88.21 247.726 87.357 246.934 86.7234C246.135 86.0846 245.377 85.6916 244.739 85.638L244.779 85.1619C245.559 85.2275 246.409 85.6924 247.231 86.3501C248.061 87.0129 248.891 87.8949 249.636 88.8412C250.381 89.788 251.045 90.8057 251.54 91.7441ZM264.745 107.081L264.849 106.866L264.842 106.863L264.835 106.86L264.745 107.081Z" fill="#444053"/>
<path fill-rule="evenodd" clip-rule="evenodd" d="M301.331 119.951C301.331 119.951 301.331 119.951 301.198 120.149C301.064 120.347 301.064 120.347 301.064 120.347L301.063 120.346L301.06 120.344L301.05 120.337C301.041 120.331 301.028 120.322 301.011 120.31C300.978 120.287 300.929 120.252 300.868 120.207C300.746 120.117 300.572 119.985 300.366 119.816C299.955 119.478 299.41 118.99 298.881 118.39C297.833 117.201 296.799 115.523 297.071 113.683L297.543 113.753C297.303 115.375 298.214 116.912 299.239 118.074C299.747 118.649 300.271 119.119 300.669 119.446C300.868 119.61 301.034 119.736 301.151 119.822C301.209 119.865 301.255 119.898 301.285 119.919C301.301 119.93 301.312 119.938 301.32 119.944L301.329 119.949L301.331 119.951L301.331 119.951Z" fill="#444053"/>
<path fill-rule="evenodd" clip-rule="evenodd" d="M294.524 123.759C294.524 123.759 294.524 123.759 294.442 123.983C294.361 124.208 294.361 124.208 294.361 124.208L294.36 124.207L294.359 124.207L294.354 124.205L294.338 124.199C294.325 124.194 294.306 124.186 294.281 124.176C294.232 124.156 294.161 124.126 294.071 124.084C293.891 124.001 293.635 123.873 293.328 123.691C292.713 123.328 291.889 122.749 291.046 121.885C289.356 120.153 287.598 117.286 287.277 112.74L287.753 112.706C288.066 117.133 289.772 119.896 291.387 121.551C292.197 122.38 292.986 122.934 293.571 123.28C293.863 123.453 294.104 123.573 294.271 123.65C294.354 123.689 294.419 123.716 294.462 123.734C294.484 123.743 294.5 123.749 294.51 123.753L294.521 123.758L294.524 123.759Z" fill="#444053"/>
<path fill-rule="evenodd" clip-rule="evenodd" d="M284.449 126.122C284.449 126.122 284.449 126.122 284.297 126.306C284.145 126.49 284.145 126.49 284.145 126.49L284.144 126.489L284.143 126.488L284.139 126.485L284.125 126.473C284.112 126.462 284.094 126.447 284.072 126.426C284.026 126.386 283.96 126.326 283.877 126.247C283.712 126.089 283.48 125.855 283.209 125.547C282.666 124.931 281.965 124.019 281.327 122.83C280.05 120.448 279.03 116.957 280.045 112.525L280.51 112.632C279.526 116.931 280.515 120.304 281.748 122.604C282.365 123.755 283.043 124.637 283.567 125.231C283.828 125.528 284.051 125.752 284.207 125.901C284.285 125.976 284.347 126.032 284.388 126.069C284.409 126.087 284.425 126.101 284.435 126.11L284.446 126.12L284.449 126.122L284.449 126.122Z" fill="#444053"/>
<path fill-rule="evenodd" clip-rule="evenodd" d="M272.29 123.763C272.29 123.763 272.29 123.763 272.075 123.866C271.86 123.969 271.86 123.969 271.86 123.968L271.859 123.967L271.856 123.961L271.847 123.942C271.839 123.925 271.828 123.901 271.814 123.869C271.784 123.804 271.742 123.709 271.69 123.587C271.586 123.343 271.442 122.989 271.28 122.547C270.957 121.664 270.564 120.429 270.283 119.019C269.723 116.211 269.599 112.659 271.435 109.841L271.834 110.102C270.102 112.761 270.199 116.156 270.751 118.926C271.026 120.305 271.412 121.517 271.729 122.383C271.887 122.816 272.028 123.162 272.129 123.4C272.18 123.518 272.221 123.61 272.248 123.671C272.262 123.702 272.273 123.725 272.28 123.741L272.288 123.758L272.29 123.762L272.29 123.763Z" fill="#444053"/>
<path fill-rule="evenodd" clip-rule="evenodd" d="M302.493 109.996C302.493 109.996 302.494 109.996 302.566 110.223C302.638 110.451 302.638 110.451 302.638 110.451L302.636 110.452L302.627 110.455C302.619 110.457 302.607 110.461 302.591 110.466C302.559 110.477 302.512 110.493 302.453 110.515C302.333 110.558 302.163 110.622 301.962 110.707C301.558 110.877 301.033 111.126 300.541 111.445C300.046 111.767 299.602 112.148 299.34 112.576C299.084 112.993 299 113.452 299.211 113.967L298.769 114.148C298.491 113.47 298.61 112.852 298.933 112.326C299.249 111.811 299.761 111.383 300.281 111.044C300.806 110.704 301.358 110.442 301.777 110.266C301.987 110.178 302.165 110.111 302.291 110.065C302.354 110.043 302.404 110.025 302.439 110.014C302.456 110.008 302.469 110.003 302.479 110L302.489 109.997L302.492 109.996L302.493 109.996Z" fill="#444053"/>
<path fill-rule="evenodd" clip-rule="evenodd" d="M296.999 101.721C296.999 101.721 296.999 101.721 297.072 101.949C297.144 102.177 297.144 102.176 297.144 102.176L297.142 102.177L297.131 102.181C297.121 102.184 297.106 102.19 297.085 102.197C297.044 102.212 296.981 102.236 296.902 102.269C296.742 102.336 296.511 102.442 296.233 102.595C295.676 102.903 294.93 103.401 294.178 104.163C292.68 105.683 291.146 108.266 291.075 112.517L290.598 112.509C290.671 108.132 292.255 105.433 293.838 103.828C294.628 103.027 295.413 102.502 296.002 102.177C296.297 102.014 296.544 101.901 296.718 101.829C296.805 101.792 296.874 101.766 296.921 101.748C296.945 101.74 296.964 101.733 296.977 101.729L296.993 101.723L296.997 101.722L296.999 101.721L296.999 101.721Z" fill="#444053"/>
<path fill-rule="evenodd" clip-rule="evenodd" d="M288.388 99.8069C288.388 99.8068 288.388 99.8067 288.573 99.9572C288.759 100.108 288.759 100.108 288.759 100.108L288.758 100.109L288.755 100.112L288.744 100.126C288.734 100.139 288.719 100.158 288.699 100.183C288.659 100.234 288.601 100.309 288.526 100.408C288.377 100.605 288.164 100.894 287.909 101.261C287.4 101.995 286.724 103.037 286.062 104.273C284.733 106.752 283.474 109.974 283.673 113.023L283.197 113.054C282.989 109.869 284.299 106.55 285.641 104.047C286.314 102.792 287 101.733 287.517 100.988C287.776 100.616 287.993 100.321 288.146 100.119C288.222 100.019 288.282 99.9408 288.324 99.8881C288.344 99.8618 288.36 99.8417 288.371 99.828L288.384 99.8124L288.387 99.8083L288.388 99.8069Z" fill="#444053"/>
<path fill-rule="evenodd" clip-rule="evenodd" d="M278.698 102.474C278.698 102.474 278.699 102.474 278.863 102.647C279.028 102.82 279.028 102.82 279.028 102.82L279.027 102.82L279.025 102.823L279.013 102.834C279.003 102.844 278.988 102.858 278.968 102.878C278.929 102.916 278.871 102.974 278.797 103.048C278.649 103.196 278.438 103.412 278.187 103.68C277.685 104.216 277.024 104.96 276.385 105.794C275.746 106.629 275.135 107.546 274.727 108.43C274.317 109.321 274.131 110.138 274.288 110.792L273.824 110.903C273.629 110.091 273.869 109.151 274.294 108.23C274.722 107.301 275.357 106.351 276.007 105.503C276.658 104.653 277.33 103.896 277.839 103.353C278.094 103.081 278.308 102.862 278.459 102.71C278.534 102.635 278.594 102.576 278.635 102.536C278.655 102.516 278.671 102.501 278.682 102.49L278.694 102.479L278.697 102.475L278.698 102.474Z" fill="#444053"/>
<path fill-rule="evenodd" clip-rule="evenodd" d="M275.5 100.549L275.542 100.784C275.584 101.019 275.584 101.019 275.584 101.019L275.582 101.019L275.579 101.02L275.568 101.022C275.557 101.024 275.542 101.026 275.523 101.03C275.484 101.036 275.427 101.046 275.355 101.057C275.21 101.079 275.003 101.109 274.752 101.139C274.251 101.2 273.574 101.264 272.872 101.274C272.173 101.284 271.435 101.241 270.819 101.081C270.213 100.925 269.66 100.638 269.434 100.108L269.873 99.9208C270.009 100.239 270.372 100.472 270.938 100.619C271.494 100.763 272.183 100.806 272.865 100.796C273.545 100.787 274.204 100.725 274.694 100.665C274.939 100.635 275.141 100.606 275.282 100.584C275.352 100.574 275.407 100.565 275.444 100.558C275.463 100.555 275.477 100.553 275.486 100.551L275.496 100.55L275.5 100.549Z" fill="#444053"/>
<path fill-rule="evenodd" clip-rule="evenodd" d="M268.637 94.6868C268.637 94.6868 268.637 94.6868 268.828 94.5428C269.018 94.3988 269.018 94.3988 269.018 94.3988L269.02 94.4009L269.025 94.408L269.046 94.436C269.065 94.4606 269.093 94.4968 269.129 94.5428C269.201 94.6347 269.304 94.7654 269.431 94.9199C269.684 95.2294 270.027 95.6323 270.389 96.0101C270.754 96.3909 271.127 96.7335 271.442 96.9328C271.6 97.0335 271.724 97.0847 271.812 97.0979C271.888 97.1093 271.913 97.0911 271.931 97.0702L272.291 97.3837C272.141 97.5566 271.937 97.5998 271.741 97.5704C271.557 97.5427 271.367 97.4509 271.186 97.3363C270.822 97.105 270.416 96.728 270.045 96.341C269.67 95.9508 269.319 95.5373 269.061 95.2225C268.932 95.0648 268.827 94.9313 268.753 94.837C268.716 94.7899 268.687 94.7526 268.668 94.7269L268.645 94.6974L268.639 94.6896L268.637 94.6868Z" fill="#444053"/>
<path fill-rule="evenodd" clip-rule="evenodd" d="M294.677 92.1161C294.677 92.1161 294.677 92.1161 294.694 92.3543C294.711 92.5926 294.711 92.5926 294.711 92.5926L294.701 92.5933L294.673 92.5953C294.648 92.597 294.61 92.5994 294.562 92.6024C294.465 92.6084 294.323 92.6167 294.141 92.6258C293.777 92.6441 293.255 92.6658 292.619 92.6794C291.348 92.7067 289.621 92.7022 287.8 92.5741C285.981 92.4462 284.059 92.1945 282.402 91.7245C280.754 91.257 279.324 90.5616 278.538 89.5151L278.92 89.2281C279.608 90.1454 280.91 90.8048 282.532 91.2648C284.145 91.7222 286.03 91.9707 287.833 92.0975C289.635 92.2242 291.347 92.2289 292.609 92.2018C293.24 92.1882 293.757 92.1667 294.117 92.1487C294.297 92.1396 294.437 92.1314 294.532 92.1255C294.58 92.1226 294.616 92.1202 294.641 92.1186L294.668 92.1167L294.677 92.1161Z" fill="#444053"/>
<path fill-rule="evenodd" clip-rule="evenodd" d="M265.872 77.2047C265.872 77.2046 265.872 77.2045 266.089 77.1036C266.305 77.0027 266.305 77.0027 266.305 77.0028L266.309 77.0118L266.322 77.0396C266.334 77.0642 266.351 77.1009 266.374 77.1489C266.419 77.2449 266.487 77.3861 266.574 77.5666C266.75 77.9275 267.005 78.4453 267.325 79.072C267.966 80.3257 268.865 82.0138 269.903 83.7528C270.941 85.4929 272.114 87.2786 273.3 88.7303C274.494 90.1913 275.674 91.2785 276.72 91.6702L276.552 92.1176C275.379 91.678 274.131 90.5008 272.931 89.0328C271.724 87.5554 270.537 85.7475 269.493 83.9978C268.449 82.2471 267.544 80.5493 266.9 79.2896C266.578 78.6596 266.321 78.1388 266.145 77.7753C266.057 77.5935 265.989 77.4511 265.943 77.354C265.92 77.3054 265.902 77.2682 265.89 77.243L265.877 77.2144L265.872 77.2047Z" fill="#444053"/>
<path fill-rule="evenodd" clip-rule="evenodd" d="M272.271 70.9272C272.271 70.9271 272.271 70.927 272.499 70.856C272.727 70.7851 272.727 70.7851 272.727 70.7852L272.73 70.7934L272.738 70.8189C272.745 70.8415 272.755 70.8753 272.77 70.9196C272.798 71.0083 272.84 71.1391 272.896 71.3071C273.007 71.643 273.171 72.1276 273.383 72.7211C273.806 73.9083 274.418 75.5299 275.175 77.2683C275.932 79.0074 276.831 80.8595 277.829 82.5091C278.829 84.1619 279.918 85.5958 281.049 86.5124L280.749 86.8837C279.555 85.9159 278.432 84.4274 277.421 82.7566C276.408 81.0825 275.499 79.2096 274.737 77.4592C273.975 75.7082 273.359 74.076 272.933 72.8816C272.72 72.2844 272.555 71.7963 272.443 71.4573C272.387 71.2878 272.344 71.1555 272.315 71.0655C272.301 71.0205 272.29 70.986 272.283 70.9627L272.274 70.9362L272.271 70.9272Z" fill="#444053"/>
<path fill-rule="evenodd" clip-rule="evenodd" d="M300.096 82.2229L300.166 82.3875C300.237 82.5521 300.237 82.5522 300.237 82.5522L300.235 82.5531L300.229 82.5555L300.207 82.5649C300.187 82.573 300.159 82.5849 300.121 82.6002C300.046 82.6308 299.935 82.6749 299.793 82.7294C299.508 82.8383 299.095 82.9888 298.581 83.1557C297.554 83.4894 296.122 83.8895 294.501 84.1543C291.269 84.6824 287.246 84.6792 284.214 82.4834L284.424 82.1931C287.337 84.3028 291.238 84.3243 294.443 83.8006C296.041 83.5395 297.456 83.1446 298.471 82.8149C298.978 82.65 299.385 82.5016 299.665 82.3946C299.805 82.3411 299.913 82.298 299.986 82.2683C300.023 82.2535 300.05 82.242 300.069 82.2343L300.089 82.2256L300.094 82.2235L300.096 82.2229Z" fill="#444053"/>
<path fill-rule="evenodd" clip-rule="evenodd" d="M281.144 68.3263C281.144 68.3262 281.144 68.3262 281.317 68.2819C281.491 68.2376 281.491 68.2376 281.491 68.2376L281.492 68.2437L281.497 68.2624C281.502 68.279 281.508 68.3038 281.517 68.3363C281.534 68.4013 281.559 68.4971 281.593 68.62C281.661 68.8657 281.761 69.2195 281.89 69.6507C282.149 70.5136 282.526 71.6856 282.997 72.9236C283.469 74.1622 284.034 75.463 284.668 76.5848C285.305 77.7109 286.002 78.6377 286.731 79.1484L286.525 79.4419C285.73 78.8844 285.001 77.9005 284.357 76.7614C283.71 75.6179 283.138 74.2988 282.663 73.0512C282.187 71.8029 281.808 70.6222 281.547 69.7538C281.417 69.3195 281.316 68.9631 281.248 68.715C281.214 68.591 281.188 68.494 281.171 68.4279C281.162 68.3949 281.155 68.3696 281.151 68.3525L281.146 68.333L281.144 68.3263Z" fill="#444053"/>
<path fill-rule="evenodd" clip-rule="evenodd" d="M298.62 72.2796L298.683 72.4472C298.746 72.6148 298.746 72.6148 298.746 72.6148L298.742 72.6165L298.729 72.6211C298.718 72.6252 298.702 72.6312 298.681 72.6388C298.639 72.6541 298.578 72.6763 298.499 72.7038C298.341 72.7589 298.113 72.8356 297.834 72.9226C297.276 73.0963 296.509 73.3113 295.676 73.4755C294.843 73.6395 293.938 73.7542 293.105 73.724C292.276 73.6939 291.494 73.5194 290.931 73.0817L291.151 72.7987C291.627 73.169 292.319 73.3369 293.118 73.3659C293.913 73.3947 294.788 73.2851 295.606 73.1239C296.424 72.9629 297.178 72.7516 297.728 72.5804C298.003 72.4948 298.226 72.4194 298.381 72.3655C298.458 72.3385 298.518 72.3169 298.559 72.3021C298.579 72.2947 298.594 72.2891 298.605 72.2852L298.616 72.281L298.619 72.2799L298.62 72.2796Z" fill="#444053"/>
<path fill-rule="evenodd" clip-rule="evenodd" d="M263.825 97.4428C263.825 97.4427 263.825 97.4427 264.064 97.4432C264.303 97.4438 264.303 97.4438 264.303 97.4439L264.303 97.4499L264.303 97.467C264.302 97.482 264.302 97.5041 264.302 97.5329C264.301 97.5905 264.3 97.6747 264.298 97.7819C264.293 97.9962 264.284 98.3026 264.267 98.6719C264.233 99.4099 264.165 100.401 264.031 101.412C263.898 102.42 263.697 103.459 263.392 104.285C263.24 104.699 263.058 105.07 262.838 105.36C262.618 105.65 262.348 105.873 262.018 105.96L261.897 105.497C262.089 105.447 262.277 105.309 262.458 105.071C262.639 104.832 262.801 104.509 262.944 104.12C263.231 103.342 263.426 102.344 263.558 101.349C263.69 100.357 263.756 99.3796 263.79 98.6497C263.807 98.285 263.816 97.9826 263.821 97.7717C263.823 97.6662 263.824 97.5837 263.825 97.5276C263.825 97.4996 263.825 97.4782 263.825 97.4639L263.825 97.4478L263.825 97.4428Z" fill="#444053"/>
<path fill-rule="evenodd" clip-rule="evenodd" d="M246.84 107.706C246.839 107.706 246.839 107.706 246.86 107.468C246.88 107.23 246.88 107.23 246.88 107.23L246.881 107.23L246.885 107.23L246.902 107.232C246.917 107.233 246.94 107.235 246.971 107.237C247.031 107.241 247.121 107.246 247.238 107.252C247.47 107.263 247.808 107.274 248.225 107.273C249.061 107.273 250.215 107.228 251.486 107.049C254.041 106.691 257.023 105.801 258.893 103.707L259.249 104.025C257.263 106.248 254.14 107.159 251.553 107.522C250.254 107.705 249.077 107.751 248.226 107.751C247.8 107.751 247.454 107.74 247.215 107.729C247.095 107.723 247.002 107.718 246.938 107.713C246.907 107.711 246.882 107.709 246.866 107.708L246.847 107.707L246.841 107.706L246.84 107.706Z" fill="#444053"/>
<path fill-rule="evenodd" clip-rule="evenodd" d="M261.674 88.2409C261.674 88.2409 261.674 88.2409 261.905 88.3006C262.136 88.3602 262.136 88.3603 262.136 88.3604L262.136 88.3622L262.135 88.367L262.13 88.385C262.126 88.4007 262.119 88.4236 262.111 88.4534C262.094 88.513 262.069 88.6001 262.036 88.7112C261.969 88.9335 261.867 89.2523 261.727 89.641C261.447 90.4181 261.015 91.4768 260.407 92.603C259.195 94.8476 257.26 97.3993 254.392 98.4855L254.223 98.0386C256.931 97.0131 258.795 94.584 259.987 92.3758C260.582 91.2756 261.004 90.2399 261.278 89.4791C261.414 89.099 261.514 88.788 261.579 88.5727C261.612 88.4651 261.636 88.3814 261.651 88.325C261.659 88.2968 261.665 88.2754 261.669 88.2613L261.673 88.2455L261.674 88.2418L261.674 88.2409Z" fill="#444053"/>
<path fill-rule="evenodd" clip-rule="evenodd" d="M241.769 99.427C241.769 99.4269 241.769 99.4269 241.847 99.2012C241.926 98.9755 241.926 98.9755 241.925 98.9755L241.928 98.9764L241.939 98.98C241.949 98.9833 241.965 98.9883 241.985 98.9948C242.027 99.0077 242.09 99.0264 242.173 99.0486C242.339 99.093 242.583 99.1512 242.892 99.2054C243.511 99.3137 244.39 99.405 245.425 99.336C247.491 99.1982 250.182 98.4214 252.678 95.8494L253.02 96.1823C250.429 98.8525 247.62 99.6684 245.457 99.8127C244.377 99.8848 243.459 99.7896 242.81 99.676C242.485 99.6192 242.227 99.5578 242.05 99.5101C241.961 99.4863 241.892 99.4659 241.845 99.4513C241.821 99.4439 241.803 99.4381 241.79 99.4339L241.775 99.429L241.771 99.4276L241.769 99.427Z" fill="#444053"/>
<path fill-rule="evenodd" clip-rule="evenodd" d="M255.09 81.5352L255.328 81.5548C255.566 81.5743 255.566 81.5744 255.566 81.5745L255.565 81.576L255.565 81.5801L255.564 81.5955C255.563 81.6088 255.561 81.6284 255.558 81.6539C255.553 81.7049 255.545 81.7794 255.534 81.8751C255.512 82.0665 255.476 82.3425 255.421 82.683C255.312 83.3637 255.128 84.3042 254.83 85.3437C254.235 87.4141 253.174 89.9151 251.305 91.5196L250.995 91.1569C252.756 89.6445 253.784 87.2538 254.371 85.2117C254.663 84.1949 254.843 83.2739 254.95 82.6073C255.003 82.2741 255.038 82.0049 255.06 81.8195C255.071 81.7268 255.079 81.6551 255.083 81.6069C255.086 81.5828 255.087 81.5646 255.088 81.5525L255.09 81.5391L255.09 81.536L255.09 81.5352Z" fill="#444053"/>
<path fill-rule="evenodd" clip-rule="evenodd" d="M242.07 89.2845C242.07 89.2845 242.07 89.2845 242.072 89.0456C242.073 88.8067 242.073 88.8067 242.073 88.8067L242.074 88.8067L242.076 88.8067L242.086 88.8067L242.126 88.8067C242.161 88.8065 242.214 88.8061 242.281 88.805C242.415 88.8028 242.609 88.7979 242.846 88.787C243.319 88.7653 243.961 88.7198 244.637 88.6251C245.314 88.5302 246.018 88.387 246.619 88.1724C247.227 87.9552 247.693 87.6775 247.938 87.3366L248.326 87.6157C247.995 88.076 247.416 88.395 246.779 88.6223C246.136 88.8522 245.397 89.0012 244.703 89.0983C244.008 89.1957 243.351 89.2421 242.868 89.2643C242.626 89.2754 242.427 89.2805 242.289 89.2827C242.219 89.2839 242.165 89.2843 242.128 89.2844L242.085 89.2845L242.074 89.2845L242.071 89.2845L242.07 89.2845Z" fill="#444053"/>
<path d="M268.94 139.989H97.3579C96.7429 139.988 96.1532 139.739 95.7184 139.295C95.2835 138.851 95.0389 138.249 95.0382 137.621V51.1445C95.0382 38.9943 104.888 29.1445 117.038 29.1445H266.259C269.021 29.1445 271.259 31.3831 271.259 34.1445V137.621C271.259 138.249 271.014 138.851 270.579 139.295C270.144 139.739 269.555 139.988 268.94 139.989Z" fill="#96A0C0"/>
<path d="M267.081 138.574H97.4066C96.7985 138.573 96.2154 138.331 95.7853 137.901C95.3553 137.471 95.1134 136.888 95.1127 136.28V31.2021H269.375V136.28C269.374 136.888 269.132 137.471 268.702 137.901C268.272 138.331 267.689 138.573 267.081 138.574Z" fill="white"/>
<path d="M262.106 134.365H102.382C101.767 134.365 101.178 134.12 100.743 133.686C100.308 133.251 100.064 132.662 100.063 132.047V45.5112C100.064 44.8965 100.308 44.3072 100.743 43.8725C101.178 43.4378 101.767 43.1933 102.382 43.1926H262.106C262.72 43.1933 263.31 43.4378 263.745 43.8725C264.179 44.3071 264.424 44.8965 264.425 45.5112V132.047C264.424 132.662 264.179 133.251 263.745 133.686C263.31 134.12 262.72 134.365 262.106 134.365Z" fill="white"/>
<path d="M269.3 36.8053H95.0382V31.4382C95.0389 30.8301 95.2808 30.2471 95.7108 29.8171C96.1408 29.3871 96.7239 29.1452 97.3321 29.1445H267.007C267.615 29.1452 268.198 29.3871 268.628 29.8171C269.058 30.2471 269.3 30.8301 269.3 31.4382L269.3 36.8053Z" fill="#19AFDE"/>
<path d="M100.666 34.4282C101.423 34.4282 102.036 33.8149 102.036 33.0583C102.036 32.3018 101.423 31.6885 100.666 31.6885C99.9095 31.6885 99.2961 32.3018 99.2961 33.0583C99.2961 33.8149 99.9095 34.4282 100.666 34.4282Z" fill="white"/>
<path d="M105.866 34.4282C106.623 34.4282 107.236 33.8149 107.236 33.0583C107.236 32.3018 106.623 31.6885 105.866 31.6885C105.11 31.6885 104.496 32.3018 104.496 33.0583C104.496 33.8149 105.11 34.4282 105.866 34.4282Z" fill="white"/>
<path d="M111.067 34.4282C111.823 34.4282 112.437 33.8149 112.437 33.0583C112.437 32.3018 111.823 31.6885 111.067 31.6885C110.31 31.6885 109.697 32.3018 109.697 33.0583C109.697 33.8149 110.31 34.4282 111.067 34.4282Z" fill="white"/>
<path d="M132.941 58.7102H116.479V65.9958H132.941V58.7102Z" fill="#E6E6E6"/>
<path d="M165.865 73.8215H149.403V81.1072H165.865V73.8215Z" fill="#E6E6E6"/>
<path d="M132.941 96.4873H116.479V103.773H132.941V96.4873Z" fill="#0454F2"/>
<path d="M165.865 111.599H149.403V118.884H165.865V111.599Z" fill="#19AFDE"/>
<path d="M247.906 119.154H231.444V126.44H247.906V119.154Z" fill="#0454F2"/>
<path d="M231.444 88.9316H214.982V96.2173H231.444V88.9316Z" fill="#E6E6E6"/>
<path d="M198.789 88.9316H165.865V96.2173H198.789V88.9316Z" fill="#0454F2"/>
<path d="M198.789 50.885H165.865V58.1707H198.789V50.885Z" fill="#0454F2"/>
<path d="M100.017 43.0593V134.535H264.638V43.0593L100.017 43.0593ZM264.098 50.6373H248.23V43.599H264.098V50.6373ZM166.189 103.683V96.6449H198.465V103.683H166.189ZM198.465 104.223V111.261H166.189V104.223H198.465ZM198.465 73.9109V80.9492H166.189V73.9109H198.465ZM166.189 73.3713V66.3329H198.465V73.3713H166.189ZM166.189 88.5272V81.4888H198.465V88.5272H166.189ZM198.465 89.0668V96.1052H166.189V89.0668H198.465ZM165.649 80.9492H149.781V73.9109H165.649V80.9492ZM165.649 81.4888V88.5272H149.781V81.4888H165.649ZM165.649 89.0668V96.1052H149.781V89.0668H165.649ZM165.649 96.6449V103.683H149.781V96.6449H165.649ZM199.005 96.6449H214.874V103.683H199.005L199.005 96.6449ZM199.005 96.1052V89.0668H214.874V96.1052H199.005ZM199.005 88.5272V81.4888H214.874V88.5272H199.005ZM199.005 80.9492V73.9109H214.874V80.9492H199.005ZM199.005 73.3713V66.3329H214.874V73.3713H199.005ZM199.005 65.7932V58.7549H214.874V65.7932H199.005ZM198.465 65.7932H166.189V58.7549H198.465L198.465 65.7932ZM165.649 65.7932H149.781V58.7549H165.649V65.7932ZM165.649 66.3329V73.3713H149.781V66.3329H165.649ZM149.241 73.3713H133.373V66.3329H149.241L149.241 73.3713ZM149.241 73.9109V80.9492H133.373V73.9109H149.241ZM149.241 81.4888V88.5272H133.373V81.4888H149.241ZM149.241 89.0668V96.1052H133.373V89.0668H149.241ZM149.241 96.6449V103.683H133.373V96.6449H149.241ZM149.241 104.223V111.261H133.373V104.223H149.241ZM149.781 104.223H165.649V111.261H149.781V104.223ZM165.649 111.801V118.839H149.781V111.801H165.649ZM166.189 111.801H198.465V118.839H166.189V111.801ZM199.005 111.801H214.874V118.839H199.005L199.005 111.801ZM199.005 111.261V104.223H214.874V111.261H199.005ZM215.413 104.223H231.282V111.261H215.413L215.413 104.223ZM215.413 103.683V96.6449H231.282V103.683H215.413ZM215.413 96.1052V89.0668H231.282V96.1052H215.413ZM215.413 88.5272V81.4888H231.282V88.5272H215.413ZM215.413 80.9492V73.9109H231.282V80.9492H215.413ZM215.413 73.3713V66.3329H231.282V73.3713H215.413ZM215.413 65.7932V58.7549H231.282V65.7932H215.413ZM215.413 58.2152V51.177H231.282V58.2152H215.413ZM214.874 58.2152H199.005V51.177H214.874L214.874 58.2152ZM198.465 58.2152H166.189V51.177H198.465L198.465 58.2152ZM165.649 58.2152H149.781V51.177H165.649V58.2152ZM149.241 58.2152H133.373V51.177H149.241L149.241 58.2152ZM149.241 58.7549V65.7932H133.373V58.7549H149.241ZM132.833 65.7932H116.965V58.7549H132.833V65.7932ZM132.833 66.3329V73.3713H116.965V66.3329H132.833ZM132.833 73.9109V80.9492H116.965V73.9109H132.833ZM132.833 81.4888V88.5272H116.965V81.4888H132.833ZM132.833 89.0668V96.1052H116.965V89.0668H132.833ZM132.833 96.6449V103.683H116.965V96.6449H132.833ZM132.833 104.223V111.261H116.965V104.223H132.833ZM132.833 111.801V118.839H116.965V111.801H132.833ZM133.373 111.801H149.241V118.839H133.373L133.373 111.801ZM149.241 119.379V126.417H133.373V119.379H149.241ZM149.781 119.379H165.649V126.417H149.781V119.379ZM166.189 119.379H198.465V126.417H166.189V119.379ZM199.005 119.379H214.874V126.417H199.005L199.005 119.379ZM215.413 119.379H231.282V126.417H215.413L215.413 119.379ZM215.413 118.839V111.801H231.282V118.839H215.413ZM231.822 111.801H247.69V118.839H231.822V111.801ZM231.822 111.261V104.223H247.69V111.261H231.822ZM231.822 103.683V96.6449H247.69V103.683H231.822ZM231.822 96.1052V89.0668H247.69V96.1052H231.822ZM231.822 88.5272V81.4888H247.69V88.5272H231.822ZM231.822 80.9492V73.9109H247.69V80.9492H231.822ZM231.822 73.3713V66.3329H247.69V73.3713H231.822ZM231.822 65.7932V58.7549H247.69V65.7932H231.822ZM231.822 58.2152V51.177H247.69V58.2152H231.822ZM231.822 50.6373V43.599H247.69V50.6374L231.822 50.6373ZM231.282 50.6373H215.413V43.599H231.282L231.282 50.6373ZM214.874 50.6373H199.005V43.599H214.874L214.874 50.6373ZM198.465 50.6373H166.189V43.599H198.465L198.465 50.6373ZM165.649 50.6373H149.781V43.599H165.649V50.6373ZM149.241 50.6373H133.373V43.599H149.241L149.241 50.6373ZM132.833 50.6373H116.965V43.599H132.833V50.6373ZM132.833 51.177V58.2152H116.965V51.177H132.833ZM116.425 58.2152H100.556V51.177H116.425L116.425 58.2152ZM116.425 58.7549V65.7932H100.556V58.7549H116.425ZM116.425 66.3329V73.3713H100.556V66.3329H116.425ZM116.425 73.9109V80.9492H100.556V73.9109H116.425ZM116.425 81.4888V88.5272H100.556V81.4888H116.425ZM116.425 89.0668V96.1052H100.556V89.0668H116.425ZM116.425 96.6449V103.683H100.556V96.6449H116.425ZM116.425 104.223V111.261H100.556V104.223H116.425ZM116.425 111.801V118.839H100.556V111.801H116.425ZM116.425 119.379V126.417H100.556V119.379H116.425ZM116.965 119.379H132.833V126.417H116.965L116.965 119.379ZM132.833 126.957V133.995H116.965V126.957H132.833ZM133.373 126.957H149.241V133.995H133.373L133.373 126.957ZM149.781 126.957H165.649V133.995H149.781L149.781 126.957ZM166.189 126.957H198.465V133.995H166.189L166.189 126.957ZM199.005 126.957H214.874V133.995H199.005V126.957ZM215.413 126.957H231.282V133.995H215.413L215.413 126.957ZM231.822 126.957H247.69V133.995H231.822V126.957ZM231.822 126.417V119.379H247.69V126.417H231.822ZM248.23 119.379H264.098V126.417H248.23V119.379ZM248.23 118.839V111.801H264.098V118.839H248.23ZM248.23 111.261V104.223H264.098V111.261H248.23ZM248.23 103.683V96.6449H264.098V103.683H248.23ZM248.23 96.1052V89.0668H264.098V96.1052H248.23ZM248.23 88.5272V81.4888H264.098V88.5272H248.23ZM248.23 80.9492V73.9109H264.098V80.9492H248.23ZM248.23 73.3713V66.3329H264.098V73.3713H248.23ZM248.23 65.7932V58.7549H264.098V65.7932H248.23ZM248.23 58.2152V51.177H264.098V58.2152H248.23ZM116.425 43.599V50.6374H100.556V43.599H116.425ZM100.556 126.957H116.425V133.995H100.556V126.957ZM248.23 133.995V126.957H264.098V133.995H248.23Z" fill="#E6E6E6"/>
<path d="M275.521 160.09C275.339 159.801 275.109 159.546 274.842 159.335C273.474 158.041 272.839 156.142 272.501 154.281C272.163 152.42 272.066 150.521 271.524 148.701C271.23 147.768 270.861 146.859 270.422 145.985C270.109 145.314 269.715 144.001 269.142 143.531C269.03 143.434 268.894 143.368 268.748 143.34C268.477 142.765 268.092 142.251 267.615 141.83C266.72 141.019 265.628 140.373 265.03 139.324C264.865 138.96 264.663 138.614 264.426 138.293C264.022 137.848 263.383 137.666 263.011 137.196C262.526 136.588 262.635 135.717 262.698 134.943C262.761 134.17 262.698 133.242 262.028 132.835C261.628 132.587 261.111 132.612 260.695 132.393C260.069 132.08 259.822 131.29 259.834 130.585C259.847 129.88 260.066 129.194 260.122 128.489C260.297 126.246 258.82 124.015 259.39 121.841C259.606 121.017 260.1 120.302 260.466 119.535C260.594 119.279 260.699 119.013 260.779 118.739C261.756 119.126 262.782 119.374 263.828 119.475C262.103 115.603 262.542 111.103 261.737 106.943L261.84 106.802C262.653 105.729 263.114 104.431 263.161 103.086C263.161 101.538 262.438 100.09 262.113 98.5739C261.834 97.2862 261.847 95.939 261.487 94.6732C261.237 93.8866 260.906 93.1284 260.498 92.411C260.108 91.6862 259.698 90.9729 259.268 90.2711C258.867 88.9426 258.465 87.6142 258.063 86.2857C257.499 84.4215 256.92 82.526 255.825 80.9155C255.424 80.3265 255.302 79.1296 254.686 78.7725C254.185 78.5131 253.617 78.4136 253.058 78.4873C252.188 77.9986 251.424 77.2936 251.315 76.3286C251.304 76.1178 251.325 75.9065 251.377 75.702H251.484C252.861 75.5766 253.559 74.361 254.276 73.2957C255.434 71.5725 254.992 69.2414 254.276 67.2801C254.098 66.6611 253.776 66.093 253.337 65.6227C252.332 64.6827 250.742 64.8895 249.446 64.4352C249.011 64.2848 248.604 64.0561 248.16 63.9496C247.299 63.749 246.398 64.031 245.609 64.4289C244.82 64.8268 244.085 65.3407 243.259 65.654C242.432 65.9673 241.412 66.2148 241.209 67.0639C241.152 67.3499 241.175 67.6461 241.277 67.9193C241.468 68.4641 241.802 68.947 242.245 69.3166C241.893 70.0428 241.702 70.8366 241.687 71.6435C241.671 72.4504 241.831 73.2511 242.154 73.9903C242.477 74.7296 242.957 75.3898 243.56 75.9255C244.163 76.4612 244.875 76.8595 245.647 77.0931C245.885 77.4753 246.107 77.8639 246.31 78.2618C246.673 78.9636 246.98 79.7907 246.855 80.5427C246.628 80.7835 246.419 81.04 246.229 81.3103C245.331 82.5636 244.82 84.033 244.351 85.4993C243.72 87.3716 243.215 89.2839 242.839 91.2236C242.076 92.8497 241.143 94.4037 240.589 96.1113C239.597 96.1125 238.609 95.9797 237.653 95.7165L235.012 95.1181C234.091 94.9081 233.134 94.6826 232.414 94.0747C232.032 93.7614 231.735 93.3447 231.346 93.0345C230.958 92.7243 230.179 92.3609 229.753 92.6178C229.676 92.6652 229.603 92.7208 229.537 92.7839C229.149 91.9975 228.125 93.1539 227.142 93.0366C225.412 92.8302 224.721 92.7452 223.5 92.5415C222.754 92.4214 221.991 92.5992 221.375 93.0366C220.661 93.5441 220.263 94.8079 220.798 95.5222C220.932 95.6812 221.219 95.4972 221.375 95.6344C221.737 96.0522 222.247 95.6349 222.528 96.1113C223.537 97.5289 226.666 95.1763 228.37 95.5222L228.26 95.8356C228.038 96.4872 227.566 97.2737 227.685 97.9504L239.434 101.977C240.188 102.283 240.988 102.46 241.8 102.5C242.117 102.497 242.432 102.455 242.739 102.374V102.976V103.001C242.77 107.134 242.113 111.238 241.991 115.368C241.969 116.123 241.991 116.934 242.467 117.523C242.999 118.169 243.944 118.297 244.767 118.15C244.965 118.116 245.159 118.073 245.349 118.018C245.628 119.058 245.829 120.117 245.95 121.186L246.726 126.782C246.826 127.354 246.867 127.936 246.849 128.517C246.758 129.83 246.066 131.005 245.565 132.218C245.065 133.43 244.767 134.881 245.424 136.015C245.631 136.366 245.916 136.664 246.101 137.027C246.335 137.59 246.442 138.198 246.414 138.807C246.461 140.494 246.507 142.184 246.551 143.876C246.415 143.854 246.275 143.881 246.157 143.954C245.506 144.462 245.578 146.878 245.531 147.626C245.481 148.88 245.531 150.158 245.462 151.424C245.381 153.13 245.107 154.821 244.645 156.465C244.532 156.999 244.286 157.496 243.928 157.909C243.562 158.228 243.126 158.455 242.655 158.57C241.095 159.059 239.465 159.282 237.831 159.228C237.171 159.207 236.483 159.144 235.869 159.395C235.256 159.645 234.761 160.334 234.983 160.961C235.174 161.487 235.753 161.738 236.276 161.935C237.47 162.356 238.623 162.887 239.719 163.521C240.141 163.809 240.586 164.061 241.049 164.276C241.493 164.436 241.952 164.549 242.42 164.614L247.969 165.573C249.105 165.767 250.473 165.886 251.196 164.946C251.587 164.439 251.643 163.75 251.625 163.104C251.593 161.851 251.343 160.576 251.506 159.322C251.629 158.582 251.824 157.854 252.088 157.151C252.641 155.507 253.196 153.865 253.753 152.223C254.31 150.575 254.873 148.911 255.089 147.182C255.168 146.555 255.161 145.841 254.683 145.449C254.561 145.349 254.421 145.277 254.269 145.236C254.251 143.726 254.053 142.212 254.138 140.702C254.16 140.326 254.197 139.95 254.229 139.571C254.519 139.847 254.778 140.154 255.002 140.486C255.537 141.326 255.734 142.435 256.551 142.992C257.246 143.469 258.276 143.444 258.764 144.133C258.921 144.398 259.039 144.684 259.114 144.982C259.398 145.721 259.823 146.397 260.366 146.972C260.553 147.659 260.812 148.325 261.139 148.958C261.6 149.933 262.06 150.906 262.516 151.875C262.986 152.921 263.509 153.943 264.081 154.936C264.519 155.561 264.871 156.242 265.13 156.96C265.571 158.508 264.851 160.206 263.712 161.346C262.573 162.487 261.07 163.142 259.59 163.753C259.434 163.806 259.291 163.891 259.171 164.003C259.042 164.155 258.974 164.35 258.98 164.549C258.98 165.272 259.574 165.893 260.257 166.115C260.954 166.303 261.685 166.329 262.394 166.193C266.394 165.708 270.382 164.73 273.918 162.785C274.447 162.534 274.916 162.171 275.292 161.722C275.474 161.496 275.591 161.225 275.632 160.938C275.672 160.65 275.634 160.357 275.521 160.09Z" fill="url(#paint1_linear)"/>
<path d="M225.018 93.2571C223.794 93.0566 222.436 93.1537 221.484 93.9495C220.909 94.437 220.546 95.129 220.47 95.8796C220.389 96.7474 220.893 97.7782 221.763 97.844C221.972 97.8464 222.182 97.8328 222.389 97.8033C222.939 97.8009 223.487 97.8471 224.029 97.9412C225.095 98.0415 226.169 97.8845 227.162 97.4832C228.155 97.082 229.037 96.4483 229.735 95.6352C230.483 94.6952 229.497 94.2879 228.614 94.0999C227.406 93.843 226.226 93.4514 225.018 93.2571Z" fill="#FBBEBE"/>
<path d="M247.234 77.9987C250.279 77.9987 252.748 75.5271 252.748 72.4781C252.748 69.4292 250.279 66.9575 247.234 66.9575C244.188 66.9575 241.719 69.4292 241.719 72.4781C241.719 75.5271 244.188 77.9987 247.234 77.9987Z" fill="#FBBEBE"/>
<path d="M242.454 117.909C242.99 118.551 243.932 118.676 244.755 118.535C246.68 118.222 248.254 116.803 250.138 116.292C252.448 115.666 254.892 116.471 257.074 117.458C259.255 118.445 261.424 119.651 263.809 119.82C261.653 115.008 262.886 109.218 260.823 104.364C260.319 103.177 259.615 102.033 259.503 100.749C259.362 99.1539 260.157 97.6155 260.279 96.0301C260.391 94.6171 259.966 93.2103 259.559 91.8631C259.056 90.2088 258.553 88.5545 258.05 86.9002C257.487 85.0485 256.908 83.1655 255.816 81.5738C255.412 80.9879 255.29 79.8004 254.676 79.4464C253.337 78.6725 251.306 79.6469 249.853 79.7002C248.401 79.7535 247.077 80.7874 246.229 81.9561C245.331 83.1905 244.82 84.66 244.351 86.1137C243.603 88.2784 243.045 90.504 242.683 92.7654C242.636 93.1038 242.595 93.4422 242.564 93.7837C242.251 97.0014 242.708 100.238 242.733 103.471V103.493C242.764 107.595 242.107 111.671 241.985 115.769C241.972 116.518 241.991 117.336 242.454 117.909Z" fill="#2F2E41"/>
<path opacity="0.1" d="M242.742 103.474C243.822 103.202 244.799 102.503 245.637 101.739C246.364 101.088 247.009 100.351 247.559 99.5453C248.251 98.4619 248.808 97.2969 249.215 96.077C250.373 92.8143 251.11 89.4164 251.406 85.9663C251.487 85.0263 251.512 84.0175 250.952 83.2718C250.637 82.8678 250.195 82.5823 249.698 82.4617C249.201 82.3411 248.678 82.3925 248.213 82.6076C247.475 82.9679 246.996 83.6979 246.551 84.3966C245.672 85.7814 244.786 87.1851 244.22 88.7266C243.969 89.4096 243.784 90.1115 243.54 90.7976C243.292 91.4744 243.006 92.1365 242.683 92.7809C242.636 93.1193 242.595 93.4576 242.564 93.7992C242.273 97.0169 242.717 100.241 242.742 103.474Z" fill="black"/>
<path d="M250.936 82.6667C251.496 83.4124 251.471 84.4307 251.393 85.3581C251.098 88.8083 250.362 92.2062 249.202 95.4688C248.799 96.699 248.242 97.8737 247.547 98.9653C246.996 99.7705 246.351 100.507 245.625 101.159C244.561 102.13 243.265 102.998 241.822 103.01C241.01 102.972 240.21 102.797 239.456 102.493L227.703 98.4891C227.585 97.8186 228.057 97.0353 228.279 96.3899L228.905 94.532C229.084 94.0181 229.29 93.4636 229.757 93.1847C230.223 92.9059 230.962 93.2881 231.35 93.5983C231.738 93.9085 232.032 94.3158 232.414 94.6322C233.137 95.2338 234.091 95.4594 235.012 95.6662L237.65 96.2583C238.607 96.5206 239.594 96.6523 240.586 96.65C241.321 94.4004 242.72 92.4202 243.512 90.1894C243.756 89.5064 243.941 88.8014 244.195 88.1184C244.758 86.5769 245.647 85.1764 246.526 83.7884C246.968 83.0929 247.446 82.3628 248.188 81.9994C248.654 81.7817 249.18 81.7292 249.679 81.8505C250.179 81.9718 250.622 82.2597 250.936 82.6667Z" fill="#2F2E41"/>
<path d="M248.993 73.7254C248.951 73.3623 248.838 73.011 248.661 72.6915C248.569 72.5315 248.428 72.4052 248.259 72.3308C248.09 72.2564 247.902 72.2379 247.722 72.2779C247.171 72.4503 246.986 73.3025 246.411 73.3307C246.022 73.3495 245.744 72.9547 245.622 72.585C245.5 72.2153 245.434 71.7923 245.143 71.5322C244.94 71.3805 244.708 71.2737 244.461 71.2189C243.124 70.796 241.744 70.0158 241.299 68.6842C241.195 68.4139 241.17 68.1192 241.228 67.8351C241.431 66.9923 242.479 66.7386 243.278 66.4346C244.076 66.1307 244.842 65.6106 245.625 65.2158C246.407 64.8211 247.315 64.5422 248.176 64.7427C248.612 64.8802 249.042 65.0402 249.462 65.2221C250.758 65.6733 252.345 65.4634 253.349 66.4002C253.788 66.8649 254.11 67.4277 254.288 68.0419C254.989 69.9907 255.434 72.303 254.273 74.0137C253.556 75.0696 252.861 76.2758 251.484 76.4043C249.881 76.539 249.246 75.0852 248.993 73.7254Z" fill="#2F2E41"/>
<path opacity="0.1" d="M246.545 71.9208C246.423 71.5511 246.357 71.1281 246.069 70.868C245.867 70.7164 245.634 70.6095 245.387 70.5547C244.047 70.1318 242.67 69.3516 242.223 68.02C242.121 67.7491 242.097 67.4548 242.154 67.1709C242.185 67.0371 242.241 66.9105 242.32 66.7981C241.81 67.0205 241.365 67.3151 241.24 67.8352C241.182 68.1193 241.207 68.4139 241.312 68.6843C241.756 70.0158 243.137 70.796 244.473 71.219C244.72 71.2738 244.953 71.3806 245.155 71.5323C245.446 71.7923 245.509 72.2122 245.634 72.585C245.759 72.9579 246.035 73.3495 246.423 73.3307C246.811 73.3119 246.999 72.9579 247.246 72.6602C246.905 72.6164 246.658 72.2654 246.545 71.9208Z" fill="black"/>
<path d="M76.2149 95.7676C75.1643 94.7614 74.372 93.4522 74.2696 91.8662C73.9767 87.2953 79.938 87.4024 81.3695 89.5142C82.8002 91.626 83.4172 97.4405 82.0034 98.0724C81.4399 98.3242 80.1427 98.1148 78.7673 97.4829L80.3519 103.443L75.6531 104.159L76.214 95.7676L76.2149 95.7676Z" fill="#FECAC3"/>
<path d="M80.0297 87.7622C79.3155 87.6403 78.3117 87.7151 77.9005 87.8297L77.9005 87.8297C78.0614 87.1748 78.0614 86.486 77.9005 85.831C77.741 85.1962 77.401 84.6873 77.0771 84.1487C76.928 83.9009 76.7637 83.6572 76.5444 83.4832C76.3211 83.3096 76.058 83.2051 75.7837 83.1811C75.5064 83.1577 75.2277 83.1997 74.9669 83.304C74.853 83.349 74.7542 83.4227 74.6422 83.4729C74.5272 83.5241 74.4589 83.4524 74.362 83.3859C74.1284 83.2231 73.8112 83.1739 73.5424 83.179H73.5424C73.2389 83.1904 72.9416 83.2751 72.6725 83.4268C72.4114 83.5702 72.1692 83.775 72.003 84.0463V84.0463C71.9252 84.1675 71.8665 84.3018 71.8292 84.4436C71.815 84.502 71.8159 84.5358 71.7675 84.5634C71.7219 84.589 71.6668 84.5982 71.6203 84.6228V84.6228C71.1591 84.8791 70.8134 85.325 70.6611 85.8597C70.5718 86.173 70.5785 86.7003 70.6706 87.2789C70.7627 87.8574 71.4493 89.2991 71.9774 89.7824C72.4484 90.2145 73.0904 90.45 73.6868 90.5043C73.3639 91.0336 73.1863 91.6613 73.0752 92.289C72.9547 92.972 72.9154 93.6687 72.9584 94.3624C72.9992 95.0229 73.0856 95.7161 73.3117 96.3345C73.5234 96.9131 73.8729 97.3615 74.3905 97.6011C74.6279 97.7107 74.8767 97.7824 75.1255 97.8448C75.3706 97.9063 75.6165 97.9646 75.8682 97.982C76.343 98.0138 76.873 97.9155 77.1769 97.467C77.2861 97.3052 77.4048 97.1045 77.4751 96.9172C77.4998 96.8496 77.5149 96.8045 77.4656 96.7502C77.4086 96.6847 77.3212 96.6407 77.2509 96.5926C76.8504 96.3254 76.5622 95.9004 76.4475 95.4079C76.3221 94.8908 76.3658 94.1925 76.8112 93.8904C77.3621 93.5187 78.0506 93.746 78.6118 93.9703C78.7239 93.0948 79.08 92.2685 79.7439 91.7739C80.478 91.2282 81.3773 91.0408 82.1418 90.5514C82.3412 90.4234 82.5416 90.2831 82.6727 90.065C82.7367 89.9694 82.7807 89.8601 82.8018 89.7445C82.817 89.5991 82.7164 89.4926 82.6375 89.3933C82.214 88.8608 80.7439 87.882 80.0297 87.7611L80.0297 87.7622Z" fill="#191847"/>
<path d="M101.099 165.879L105.994 164.373C103.849 157.857 96.8641 142.894 96.8641 142.894C93.8156 135.211 91.716 127.62 88.0837 120.206H74.2592C78.2308 129.412 84.6882 137.975 89.1379 145.499C93.5867 153.023 96.9918 160.141 102.015 166.335L101.099 165.879Z" fill="#67728C"/>
<path fill-rule="evenodd" clip-rule="evenodd" d="M85.2444 107.556L85.2438 107.557V107.556L85.2444 107.556ZM85.2444 107.556L88.3684 110.216L93.0284 104.284C95.7358 103.053 96.9434 102.266 96.6543 101.924C96.4088 101.635 96.0828 101.695 95.7828 101.75C95.5493 101.793 95.3315 101.833 95.1796 101.703C94.8317 101.407 95.249 100.131 95.6953 98.9365C96.1415 97.7425 95.5189 97.9324 95.1777 98.1446C94.1031 99.165 93.0554 100.529 92.0357 102.236L85.2444 107.556ZM100.224 107.077L97.2419 109.421L97.8799 112.8C99.1338 111.535 100.338 110.637 101.491 110.109C103.697 109.097 104.558 108.446 105.48 106.779C105.972 105.886 106.267 104.196 105.625 103.755C105.379 103.586 104.625 104.184 103.856 104.793C103.271 105.257 102.677 105.728 102.292 105.873C101.773 106.068 101.738 105.331 101.711 104.742C101.691 104.32 101.675 103.973 101.486 104.102C100.856 104.207 100.436 105.199 100.224 107.077Z" fill="#FECAC3"/>
<path d="M83.3528 105.873C85.7585 105.49 88.8995 104.481 92.0215 101.69L93.7884 104.641C91.753 107.453 88.6985 109.967 85.7801 110.312C83.4807 110.584 81.922 107.849 83.3528 105.873Z" fill="#B7CDE6"/>
<path d="M87.152 113.471C89.9447 113.772 94.3571 112.301 100.392 109.057C102.423 112.179 103.478 114.461 103.553 115.906C98.5034 119.621 94.012 121.601 90.1766 122.245C90.6186 124.573 90.6452 126.847 89.9903 129.022C88.6424 133.494 76.8776 131.238 73.2037 132.55C69.7627 124.995 73.8986 121.122 73.2132 116.068C72.4632 110.533 74.3371 101.314 74.973 101.221L82.0618 100.456C82.9572 104.637 85.2034 109.061 87.152 113.471L87.152 113.471Z" fill="#93B7FE"/>
<path d="M94.5602 84.0616L118.254 74.6512C118.966 74.3682 119.459 74.5953 119.733 75.3326L125.409 90.6314C125.682 91.3687 125.463 91.8789 124.75 92.1619L101.057 101.572C100.344 101.855 99.8511 101.628 99.5776 100.891L93.9017 85.5921C93.6281 84.8548 93.8476 84.3446 94.5602 84.0616Z" fill="#3F3D56"/>
<path d="M105.768 92.8693C105.606 93.2709 105.286 93.5866 104.885 93.7416H104.885C104.087 94.0539 103.189 93.6529 102.879 92.8455C102.573 92.0392 102.975 91.1336 103.777 90.822L102.748 88.1118C100.466 88.9981 99.3103 91.6001 100.181 93.8941C101.052 96.1881 103.632 97.3398 105.914 96.4536L105.914 96.4536C107.062 96.0147 107.976 95.1104 108.435 93.9597L105.769 92.8702L105.768 92.8693Z" fill="#F1F5F8"/>
<path d="M103.134 86.6491L104.235 89.2195C105.087 88.9261 106.043 89.307 106.371 90.0723L109.237 89.0856C108.306 86.9107 105.56 85.8142 103.134 86.6491Z" fill="#AFB9C5"/>
<path d="M106.399 91.0108C106.607 91.4523 106.536 91.9259 106.258 92.305L109.172 93.7208H109.172C110.001 92.603 110.149 91.2364 109.575 90.0176L106.399 91.0099L106.399 91.0108Z" fill="#C5CFD6"/>
<path d="M113.39 91.6925L122.043 87.9924C122.378 87.8493 122.61 87.9641 122.738 88.3369C122.866 88.7097 122.763 88.9677 122.429 89.1108L113.775 92.8109C113.44 92.954 113.209 92.8391 113.08 92.4663C112.952 92.0935 113.055 91.8356 113.39 91.6925Z" fill="#F1F5F8"/>
<path d="M112.348 89.0863L121.002 85.3862C121.337 85.2431 121.568 85.3579 121.697 85.7307C121.825 86.1035 121.722 86.3615 121.387 86.5046L112.734 90.2047C112.399 90.3478 112.167 90.2329 112.039 89.8601C111.911 89.4873 112.014 89.2294 112.348 89.0863Z" fill="#F1F5F8"/>
<path d="M110.786 85.4379L119.44 81.7378C119.775 81.5947 120.006 81.7095 120.135 82.0823C120.263 82.4551 120.16 82.7131 119.825 82.8562L111.172 86.5563C110.837 86.6994 110.606 86.5845 110.477 86.2117C110.349 85.8389 110.452 85.581 110.786 85.4379Z" fill="#F1F5F8"/>
</g>
<defs>
<linearGradient id="paint0_linear" x1="78.693" y1="42.3486" x2="78.5374" y2="130.433" gradientUnits="userSpaceOnUse">
<stop stop-color="#0454F2" stop-opacity="0"/>
<stop offset="1" stop-color="#435374"/>
</linearGradient>
<linearGradient id="paint1_linear" x1="250.758" y1="166.709" x2="246.607" y2="63.9039" gradientUnits="userSpaceOnUse">
<stop stop-color="#808080" stop-opacity="0.25"/>
<stop offset="0.54" stop-color="#808080" stop-opacity="0.12"/>
<stop offset="1" stop-color="#808080" stop-opacity="0.1"/>
</linearGradient>
<clipPath id="clip0">
<rect width="315" height="172" fill="white"/>
</clipPath>
</defs>
</svg>
